<svg xmlns="http://www.w3.org/2000/svg" viewBox="0 0 240 170" width="240" height="170" role="img" aria-label="Capacete caído e trincado">
<title>Capacete caído e trincado</title>
<defs><filter id="m" x="-5%" y="-5%" width="110%" height="110%"><feTurbulence type="fractalNoise" baseFrequency="0.035" numOctaves="2" seed="7"/><feDisplacementMap in="SourceGraphic" scale="1.6"/></filter></defs>
<g filter="url(#m)" fill="none" stroke="#ffe7bd" stroke-width="2.4" stroke-linecap="round" stroke-linejoin="round">
<ellipse cx="120" cy="150" rx="86" ry="9" fill="#ffe7bd" fill-opacity="0.07" stroke="none"/>
<g transform="translate(118 92) rotate(-24)">
<path d="M -62,30 C -70,-20 -40,-62 4,-64 C 46,-66 70,-34 72,-6 L 74,30 C 72,44 60,50 46,50 L -40,50 C -54,50 -62,42 -62,30 Z"/>
<path d="M 22,-28 C 40,-31 60,-26 70,-18 L 72,6 C 58,10 36,10 22,6 C 15,-6 15,-18 22,-28 Z"/>
<path d="M 12,-34 C 40,-40 64,-30 76,-16"/>
<circle cx="8" cy="-8" r="5"/>
<path d="M -56,0 C -32,-30 6,-42 50,-42"/>
<path d="M -50,40 C -20,36 20,36 44,40"/>
<path d="M -28,-54 L -21,-42 L -30,-33 L -19,-22 L -24,-14"/>
<path d="M 44,20 l 14,-4 M 46,28 l 12,-3"/>
<path d="M -18,50 C -16,62 -6,70 8,72"/>
<circle cx="13" cy="72" r="4"/><circle cx="20" cy="72" r="4"/>
</g>
<path d="M 30,152 L 200,150" stroke-dasharray="12 8" opacity="0.5"/>
</g>
</svg>
