<svg xmlns="http://www.w3.org/2000/svg" viewBox="0 80 480 156" width="480" height="156" role="img" aria-label="Equipe pré-hospitalar ao lado de paciente deitado no chão">
<title>Equipe pré-hospitalar ao lado de paciente deitado no chão</title>
<defs><filter id="m" x="-5%" y="-5%" width="110%" height="110%"><feTurbulence type="fractalNoise" baseFrequency="0.035" numOctaves="2" seed="7"/><feDisplacementMap in="SourceGraphic" scale="1.6"/></filter></defs>
<g filter="url(#m)" fill="none" stroke="#ffe7bd" stroke-width="2.4" stroke-linecap="round" stroke-linejoin="round">
<ellipse cx="230" cy="220" rx="220" ry="9" fill="#ffe7bd" fill-opacity="0.06" stroke="none"/>
<path d="M 210,124 L 196,158 L 186,190" stroke-width="13.4"/><path d="M 210,124 L 196,158 L 186,190" stroke="#0d0c09" stroke-width="8.6"/>
<path d="M 234,168 L 208,206 L 252,213" stroke-width="17.4"/><path d="M 234,168 L 208,206 L 252,213" stroke="#0d0c09" stroke-width="12.6"/>
<path d="M 234,168 L 206,120" stroke-width="32.4"/><path d="M 234,168 L 206,120" stroke="#0d0c09" stroke-width="27.6"/>
<path d="M 206.7,148.6 L 230.5,134.6" stroke-width="3.84"/>
<circle cx="194" cy="103" r="13" fill="#0d0c09"/>
<path d="M 202,126 L 188,160 L 178,192" stroke-width="13.4"/><path d="M 202,126 L 188,160 L 178,192" stroke="#0d0c09" stroke-width="8.6"/>
<path d="M 238,202 L 290,200 L 338,202" stroke-width="18.4"/><path d="M 238,202 L 290,200 L 338,202" stroke="#0d0c09" stroke-width="13.6"/>
<path d="M 338,202 L 343,188" stroke-width="12.4"/><path d="M 338,202 L 343,188" stroke="#0d0c09" stroke-width="7.6"/>
<path d="M 142,205 L 240,207" stroke-width="34.4"/><path d="M 142,205 L 240,207" stroke="#0d0c09" stroke-width="29.6"/>
<path d="M 240,211 L 292,212 L 340,213" stroke-width="19.4"/><path d="M 240,211 L 292,212 L 340,213" stroke="#0d0c09" stroke-width="14.6"/>
<path d="M 340,213 L 347,199" stroke-width="12.4"/><path d="M 340,213 L 347,199" stroke="#0d0c09" stroke-width="7.6"/>
<path d="M 152,211 L 192,215 L 226,215" stroke-width="13.4"/><path d="M 152,211 L 192,215 L 226,215" stroke="#0d0c09" stroke-width="8.6"/>
<path d="M 127,205 L 143,205" stroke-width="26.4"/><path d="M 127,205 L 143,205" stroke="#0d0c09" stroke-width="21.6"/>
<path d="M 131,195 L 131,215 M 139,195 L 139,215"/>
<circle cx="114" cy="201" r="15" fill="#0d0c09"/>
<path d="M 74,132 L 90,158 L 104,188" stroke-width="13.4"/><path d="M 74,132 L 90,158 L 104,188" stroke="#0d0c09" stroke-width="8.6"/>
<path d="M 40,178 L 68,213 L 24,216" stroke-width="17.4"/><path d="M 40,178 L 68,213 L 24,216" stroke="#0d0c09" stroke-width="12.6"/>
<path d="M 40,178 L 70,128" stroke-width="32.4"/><path d="M 40,178 L 70,128" stroke="#0d0c09" stroke-width="27.6"/>
<path d="M 44.7,143.4 L 68.3,157.6" stroke-width="3.84"/>
<circle cx="82" cy="110" r="13" fill="#0d0c09"/>
<path d="M 66,134 L 80,164 L 99,196" stroke-width="13.4"/><path d="M 66,134 L 80,164 L 99,196" stroke="#0d0c09" stroke-width="8.6"/>
<rect x="376" y="186" width="62" height="32" rx="6" fill="#0d0c09"/>
<path d="M 394,186 C 394,172 420,172 420,186"/>
<path d="M 407,194 L 407,210 M 399,202 L 415,202" stroke-width="3.5999999999999996"/>
<path d="M 6,222 L 470,220" opacity="0.55"/>
</g>
</svg>
